<svg xmlns="http://www.w3.org/2000/svg">
  <symbol id="icon-profile" viewBox="0 0 16 16" fill="none" stroke="currentColor" stroke-width="1.3" stroke-linecap="round">
    <circle cx="8" cy="6" r="3"/>
    <path d="M1.5 15.5c0-3.5 3-5.5 6.5-5.5s6.5 2 6.5 5.5"/>
  </symbol>
  <symbol id="icon-experience" viewBox="0 0 16 16" fill="none" stroke="currentColor" stroke-width="1.3" stroke-linecap="round">
    <line x1="3" y1="5" x2="13" y2="5"/>
    <line x1="3" y1="8" x2="13" y2="8"/>
    <line x1="3" y1="11" x2="9" y2="11"/>
  </symbol>
  <symbol id="icon-skills" viewBox="0 0 16 16" fill="none" stroke="currentColor" stroke-width="1.3" stroke-linecap="round">
    <line x1="3" y1="12" x2="3" y2="8"/>
    <line x1="6.5" y1="12" x2="6.5" y2="5"/>
    <line x1="10" y1="12" x2="10" y2="7"/>
    <line x1="13.5" y1="12" x2="13.5" y2="3"/>
  </symbol>
  <symbol id="icon-education" viewBox="0 0 16 16" fill="none" stroke="currentColor" stroke-width="1.3" stroke-linecap="round">
    <path d="M8 3L14 6.5 8 10 2 6.5z"/>
    <path d="M5 8.5V12.5c1 1 6 1 6 0V8.5"/>
  </symbol>
  <symbol id="icon-languages" viewBox="0 0 16 16" fill="none" stroke="currentColor" stroke-width="1.3" stroke-linecap="round">
    <path d="M3 4h5M5.5 2v2M5.5 4c0 3 1.5 5 3 6"/>
    <path d="M9 10c-1 0-2-.5-2.5-1"/>
    <path d="M9 4h4l-4 5h4"/>
  </symbol>
</svg>